<?xml version="1.0" encoding="utf-8"?>
<!-- Generator: Adobe Illustrator 26.5.0, SVG Export Plug-In . SVG Version: 6.00 Build 0)  -->
<svg version="1.1" id="Layer_1" xmlns="http://www.w3.org/2000/svg" xmlns:xlink="http://www.w3.org/1999/xlink" x="0px" y="0px"
	 viewBox="0 0 576 512" style="enable-background:new 0 0 576 512;" xml:space="preserve">
<style type="text/css">
	.st0{fill:#F48900;}
</style>
<path class="st0" d="M275.5,6.6C278.3,2.5,283,0,288,0s9.7,2.5,12.5,6.6l66.3,96.4c11.2,16.3,17.2,35.6,17.2,55.3v1.7
	c0,53-43,96-96,96s-96-43-96-96v-1.7c0-19.8,6-39,17.2-55.3L275.5,6.6z M568.2,336.3c13.1,17.8,9.3,42.8-8.5,55.9l-126.6,93.3
	c-23.4,17.2-51.6,26.5-80.7,26.5H192H32c-17.7,0-32-14.3-32-32v-64c0-17.7,14.3-32,32-32h36.8l44.9-36c22.7-18.2,50.9-28,80-28H272
	h16h64c17.7,0,32,14.3,32,32s-14.3,32-32,32h-64h-16c-8.8,0-16,7.2-16,16s7.2,16,16,16h120.6l119.7-88.2
	C530.1,314.7,555.1,318.5,568.2,336.3z M193.6,384L193.6,384h-0.9C193,384,193.3,384,193.6,384z"/>
</svg>
