<?xml version="1.0" encoding="utf-8"?>
<!-- Generator: Adobe Illustrator 26.5.0, SVG Export Plug-In . SVG Version: 6.00 Build 0)  -->
<svg version="1.1" id="Layer_1" xmlns="http://www.w3.org/2000/svg" xmlns:xlink="http://www.w3.org/1999/xlink" x="0px" y="0px"
	 viewBox="0 0 640 512" style="enable-background:new 0 0 640 512;" xml:space="preserve">
<style type="text/css">
	.st0{fill:#F48900;}
</style>
<path class="st0" d="M320.7,351.7C329,262.1,404.3,192,496,192c8.9,0,17.6,0.7,26.1,1.9L309.5,7c-6-5-14-7-21-7s-15,1-22,8L10,231.5
	c-7,7-10,15-10,24c0,18,14,32.1,32,32.1h32V480c0,17.7,14.3,32,32,32h96c17.7,0,32-14.3,32-32v-96.3c0-17.7,14.3-32,32-32h64H320.7z
	 M496,512c79.5,0,144-64.5,144-144s-64.5-144-144-144s-144,64.5-144,144S416.5,512,496,512z M496,464c-13.3,0-24-10.7-24-24
	s10.7-24,24-24s24,10.7,24,24S509.3,464,496,464z M496,272c8.8,0,16,7.2,16,16v80c0,8.8-7.2,16-16,16s-16-7.2-16-16v-80
	C480,279.2,487.2,272,496,272z"/>
</svg>
